<mxfile host="app.diagrams.net" modified="2023-05-21T13:53:34.792Z" agent="Mozilla/5.0 (Macintosh; Intel Mac OS X 10_15_7) AppleWebKit/537.36 (KHTML, like Gecko) Chrome/113.0.0.0 Safari/537.36" etag="vhQv7JqdUFTed3-Xb8Xb" version="21.1.4" type="github">
  <diagram name="Page-1" id="74e2e168-ea6b-b213-b513-2b3c1d86103e">
    <mxGraphModel dx="954" dy="648" grid="1" gridSize="10" guides="1" tooltips="1" connect="1" arrows="1" fold="1" page="1" pageScale="1" pageWidth="1100" pageHeight="850" background="none" math="0" shadow="0">
      <root>
        <mxCell id="0" />
        <mxCell id="1" parent="0" />
        <mxCell id="77e6c97f196da883-1" value="Chatbot" style="swimlane;html=1;childLayout=stackLayout;startSize=20;rounded=0;shadow=0;labelBackgroundColor=none;strokeWidth=1;fontFamily=Verdana;fontSize=8;align=center;" parent="1" vertex="1">
          <mxGeometry x="60" y="10" width="960" height="750" as="geometry" />
        </mxCell>
        <mxCell id="77e6c97f196da883-2" value="Start" style="swimlane;html=1;startSize=20;" parent="77e6c97f196da883-1" vertex="1">
          <mxGeometry y="20" width="160" height="730" as="geometry" />
        </mxCell>
        <mxCell id="gGuCFP2DqycXZL19hBCG-19" value="Users Input" style="rounded=1;whiteSpace=wrap;html=1;" vertex="1" parent="77e6c97f196da883-2">
          <mxGeometry x="20" y="290" width="90" height="40" as="geometry" />
        </mxCell>
        <mxCell id="77e6c97f196da883-4" value="Initialize" style="swimlane;html=1;startSize=20;" parent="77e6c97f196da883-1" vertex="1">
          <mxGeometry x="160" y="20" width="160" height="730" as="geometry" />
        </mxCell>
        <mxCell id="gGuCFP2DqycXZL19hBCG-1" value="Load intents and dataset" style="shape=process;whiteSpace=wrap;html=1;backgroundOutline=1;" vertex="1" parent="77e6c97f196da883-4">
          <mxGeometry x="20" y="120" width="120" height="60" as="geometry" />
        </mxCell>
        <mxCell id="gGuCFP2DqycXZL19hBCG-2" value="Load CBT components" style="shape=process;whiteSpace=wrap;html=1;backgroundOutline=1;" vertex="1" parent="77e6c97f196da883-4">
          <mxGeometry x="20" y="230" width="120" height="60" as="geometry" />
        </mxCell>
        <mxCell id="gGuCFP2DqycXZL19hBCG-3" value="Load cognitive distortions" style="shape=process;whiteSpace=wrap;html=1;backgroundOutline=1;" vertex="1" parent="77e6c97f196da883-4">
          <mxGeometry x="20" y="340" width="120" height="60" as="geometry" />
        </mxCell>
        <mxCell id="gGuCFP2DqycXZL19hBCG-4" value="Load recommendations" style="shape=process;whiteSpace=wrap;html=1;backgroundOutline=1;" vertex="1" parent="77e6c97f196da883-4">
          <mxGeometry x="20" y="470" width="120" height="60" as="geometry" />
        </mxCell>
        <mxCell id="gGuCFP2DqycXZL19hBCG-14" value="Lane 5" style="swimlane;html=1;startSize=20;" vertex="1" parent="77e6c97f196da883-1">
          <mxGeometry x="320" y="20" width="160" height="730" as="geometry" />
        </mxCell>
        <mxCell id="gGuCFP2DqycXZL19hBCG-15" value="Perform sentiment analysis" style="shape=process;whiteSpace=wrap;html=1;backgroundOutline=1;" vertex="1" parent="gGuCFP2DqycXZL19hBCG-14">
          <mxGeometry x="20" y="150" width="120" height="60" as="geometry" />
        </mxCell>
        <mxCell id="gGuCFP2DqycXZL19hBCG-16" value="Capture User emotion" style="shape=process;whiteSpace=wrap;html=1;backgroundOutline=1;" vertex="1" parent="gGuCFP2DqycXZL19hBCG-14">
          <mxGeometry x="20" y="270" width="120" height="60" as="geometry" />
        </mxCell>
        <mxCell id="gGuCFP2DqycXZL19hBCG-17" value="Capture CBT Thought record" style="shape=process;whiteSpace=wrap;html=1;backgroundOutline=1;" vertex="1" parent="gGuCFP2DqycXZL19hBCG-14">
          <mxGeometry x="20" y="410" width="120" height="60" as="geometry" />
        </mxCell>
        <mxCell id="gGuCFP2DqycXZL19hBCG-18" value="Recommendation" style="shape=process;whiteSpace=wrap;html=1;backgroundOutline=1;" vertex="1" parent="gGuCFP2DqycXZL19hBCG-14">
          <mxGeometry x="20" y="520" width="120" height="60" as="geometry" />
        </mxCell>
        <mxCell id="77e6c97f196da883-7" value="Generate" style="swimlane;html=1;startSize=20;" parent="77e6c97f196da883-1" vertex="1">
          <mxGeometry x="480" y="20" width="160" height="730" as="geometry" />
        </mxCell>
        <mxCell id="gGuCFP2DqycXZL19hBCG-33" value="" style="shape=flexArrow;endArrow=classic;html=1;rounded=0;exitX=1.033;exitY=0.617;exitDx=0;exitDy=0;exitPerimeter=0;" edge="1" parent="77e6c97f196da883-1" source="gGuCFP2DqycXZL19hBCG-19">
          <mxGeometry width="50" height="50" relative="1" as="geometry">
            <mxPoint x="370" y="330" as="sourcePoint" />
            <mxPoint x="160" y="330" as="targetPoint" />
          </mxGeometry>
        </mxCell>
      </root>
    </mxGraphModel>
  </diagram>
</mxfile>
